{"glyphs":{"0":{"ha":604,"x_min":47,"x_max":557,"o":"m 557 1040 l 557 0 l 47 0 l 47 1040 l 557 1040 m 186 249 l 393 903 l 186 903 l 186 249 m 418 139 l 418 729 l 231 139 l 418 139 z "},"1":{"ha":350,"x_min":47,"x_max":303,"o":"m 303 0 l 164 0 l 164 901 l 47 901 l 47 1040 l 164 1042 l 303 1042 l 303 0 z "},"2":{"ha":535,"x_min":47,"x_max":488,"o":"m 186 371 l 186 139 l 349 139 l 349 308 l 488 222 l 488 0 l 47 0 l 47 453 l 49 453 l 349 679 l 349 903 l 186 903 l 186 732 l 47 818 l 47 1042 l 488 1042 l 488 588 l 186 371 z "},"3":{"ha":535,"x_min":47,"x_max":488,"o":"m 47 903 l 47 1042 l 488 1042 l 488 538 l 397 521 l 488 504 l 488 0 l 47 0 l 47 139 l 346 139 l 346 394 l 203 429 l 203 611 l 347 647 l 347 903 l 47 903 z "},"4":{"ha":536,"x_min":47,"x_max":489,"o":"m 350 0 l 350 300 l 47 456 l 47 1042 l 186 1042 l 186 558 l 350 475 l 350 1042 l 489 1042 l 489 0 l 350 0 z "},"5":{"ha":535,"x_min":47,"x_max":488,"o":"m 488 903 l 186 903 l 186 671 l 488 454 l 488 0 l 47 0 l 47 224 l 186 310 l 186 139 l 349 139 l 349 363 l 49 588 l 47 588 l 47 1040 l 117 1040 l 117 1042 l 488 1042 l 488 903 z "},"6":{"ha":604,"x_min":47,"x_max":557,"o":"m 186 1042 l 186 615 l 557 615 l 557 0 l 47 0 l 47 1042 l 186 1042 m 186 139 l 418 139 l 418 476 l 186 476 l 186 139 z "},"7":{"ha":535,"x_min":47,"x_max":488,"o":"m 488 474 l 186 335 l 186 0 l 47 0 l 47 453 l 349 589 l 349 903 l 186 903 l 186 732 l 47 818 l 47 1042 l 488 1042 l 488 474 z "},"8":{"ha":604,"x_min":47,"x_max":557,"o":"m 557 1042 l 557 538 l 467 521 l 557 504 l 557 0 l 47 0 l 47 504 l 139 521 l 47 538 l 47 1042 l 557 1042 m 189 903 l 189 647 l 303 618 l 417 647 l 417 903 l 189 903 m 303 422 l 189 394 l 189 139 l 417 139 l 417 394 l 303 422 z "},"9":{"ha":604,"x_min":47,"x_max":557,"o":"m 418 0 l 418 426 l 47 426 l 47 1042 l 557 1042 l 557 0 l 418 0 m 418 903 l 186 903 l 186 565 l 418 565 l 418 903 z "},"\u0000":{"ha":0,"x_min":0,"x_max":0,"o":""},"\r":{"ha":347,"x_min":0,"x_max":0,"o":""}," ":{"ha":319,"x_min":0,"x_max":0,"o":""},"A":{"ha":536,"x_min":47,"x_max":489,"o":"m 186 0 l 47 0 l 47 1044 l 489 1044 l 489 0 l 350 0 l 350 388 l 186 276 l 186 0 m 186 443 l 350 554 l 350 906 l 186 906 l 186 443 z "},"B":{"ha":535,"x_min":47,"x_max":488,"o":"m 47 1044 l 488 1044 l 488 478 l 404 422 l 488 0 l 418 0 l 418 -1 l 117 -1 l 117 0 l 47 0 l 47 1044 m 186 442 l 349 551 l 349 906 l 186 906 l 186 442 m 186 139 l 319 138 l 279 338 l 186 275 l 186 139 z "},"C":{"ha":535,"x_min":47,"x_max":488,"o":"m 186 139 l 349 139 l 349 438 l 488 526 l 488 0 l 47 0 l 47 1044 l 488 1044 l 488 803 l 349 803 l 349 906 l 186 906 l 186 139 z "},"D":{"ha":540,"x_min":47,"x_max":493,"o":"m 489 293 q 478 175 489 229 q 441 82 467 121 q 372 22 415 43 q 264 0 329 0 l 47 0 l 47 1040 l 186 1040 l 186 1039 l 264 1039 q 358 1022 319 1039 q 422 974 396 1006 q 462 898 447 943 q 485 797 476 853 q 490 729 489 771 q 492 638 492 688 q 492 536 493 589 q 491 436 492 483 q 490 351 490 389 q 489 293 489 313 m 349 772 q 331 840 343 814 q 300 879 319 865 q 253 898 281 893 q 186 903 225 903 l 186 138 q 195 136 190 136 q 204 136 200 136 q 263 141 236 136 q 308 162 289 146 q 339 209 328 178 q 350 293 350 240 q 351 326 350 296 q 352 404 351 357 q 353 508 353 451 q 353 617 353 565 q 352 712 353 669 q 349 772 351 754 z "},"E":{"ha":535,"x_min":47,"x_max":488,"o":"m 186 139 l 488 139 l 488 0 l 47 0 l 47 1042 l 488 1042 l 488 903 l 186 903 l 186 433 l 375 546 l 444 425 l 186 272 l 186 139 z "},"F":{"ha":535,"x_min":47,"x_max":488,"o":"m 186 0 l 47 0 l 47 1042 l 488 1042 l 488 903 l 186 903 l 186 433 l 375 546 l 444 425 l 186 272 l 186 0 z "},"G":{"ha":535,"x_min":47,"x_max":488,"o":"m 186 139 l 349 139 l 349 386 l 281 386 l 281 525 l 488 525 l 488 0 l 47 0 l 47 1040 l 349 1042 l 488 1042 l 488 800 l 349 800 l 349 903 l 186 903 l 186 139 z "},"H":{"ha":532,"x_min":47,"x_max":485,"o":"m 186 0 l 47 0 l 47 1044 l 186 1044 l 186 444 l 346 554 l 346 1044 l 485 1044 l 485 0 l 346 0 l 346 386 l 186 276 l 186 0 z "},"I":{"ha":465,"x_min":47,"x_max":418,"o":"m 303 139 l 418 139 l 418 0 l 47 0 l 47 139 l 164 139 l 164 901 l 47 901 l 47 1040 l 418 1040 l 418 901 l 303 901 l 303 139 z "},"J":{"ha":535,"x_min":47,"x_max":488,"o":"m 349 1044 l 488 1044 l 488 0 l 47 0 l 47 526 l 186 438 l 186 139 l 349 139 l 349 1044 z "},"K":{"ha":540,"x_min":47,"x_max":493,"o":"m 186 0 l 47 0 l 47 1044 l 186 1044 l 186 564 l 349 564 l 349 1044 l 488 1044 l 488 425 l 372 425 l 493 0 l 343 0 l 218 425 l 186 425 l 186 0 z "},"L":{"ha":536,"x_min":47,"x_max":489,"o":"m 186 1042 l 186 139 l 350 139 l 350 293 l 489 382 l 489 0 l 47 0 l 47 1042 l 186 1042 z "},"M":{"ha":801,"x_min":47,"x_max":754,"o":"m 403 915 l 615 1039 l 754 1039 l 754 -1 l 615 -1 l 615 882 l 472 799 l 472 397 l 333 308 l 333 799 l 186 883 l 186 1 l 47 1 l 47 1042 l 186 1042 l 403 915 z "},"N":{"ha":535,"x_min":47,"x_max":488,"o":"m 186 0 l 47 0 l 47 1042 l 186 1042 l 349 490 l 349 1040 l 488 1042 l 488 0 l 349 0 l 186 550 l 186 0 z "},"O":{"ha":604,"x_min":47,"x_max":557,"o":"m 557 1040 l 557 0 l 47 0 l 47 1040 l 557 1040 m 186 139 l 418 139 l 418 903 l 186 903 l 186 139 m 233 425 l 233 571 l 372 571 l 372 425 l 233 425 z "},"P":{"ha":535,"x_min":47,"x_max":488,"o":"m 186 0 l 47 0 l 47 1042 l 488 1042 l 488 457 l 186 274 l 186 0 m 186 436 l 349 535 l 349 903 l 186 903 l 186 436 z "},"Q":{"ha":604,"x_min":47,"x_max":557,"o":"m 557 1042 l 557 0 l 47 0 l 47 1042 l 557 1042 m 186 139 l 418 139 l 418 903 l 186 903 l 186 139 m 493 -60 l 493 -199 l 108 -197 l 108 -58 l 493 -60 z "},"R":{"ha":540,"x_min":47,"x_max":493,"o":"m 186 0 l 47 0 l 47 1042 l 349 1042 l 349 1043 l 488 1043 l 488 479 l 378 406 l 493 0 l 343 0 l 249 318 l 186 275 l 186 0 m 186 443 l 349 553 l 349 903 l 186 903 l 186 443 z "},"S":{"ha":535,"x_min":47,"x_max":488,"o":"m 186 679 l 486 453 l 488 453 l 488 -1 l 47 -1 l 47 222 l 186 308 l 186 139 l 349 139 l 349 371 l 47 588 l 47 1042 l 488 1042 l 488 818 l 349 732 l 349 903 l 186 903 l 186 679 z "},"T":{"ha":539,"x_min":47,"x_max":492,"o":"m 492 1042 l 492 903 l 339 903 l 339 0 l 200 0 l 200 903 l 47 903 l 47 1042 l 492 1042 z "},"U":{"ha":535,"x_min":47,"x_max":488,"o":"m 186 139 l 349 139 l 349 1042 l 488 1042 l 488 0 l 47 0 l 47 1042 l 186 1042 l 186 139 z "},"V":{"ha":535,"x_min":47,"x_max":488,"o":"m 186 215 l 276 156 l 349 213 l 349 1044 l 488 1044 l 488 139 l 276 0 l 47 139 l 47 1044 l 186 1044 l 186 215 z "},"W":{"ha":778,"x_min":47,"x_max":731,"o":"m 186 215 l 278 156 l 319 203 l 319 674 l 458 775 l 458 203 l 500 156 l 592 217 l 592 1042 l 731 1042 l 731 139 l 500 0 l 389 85 l 278 0 l 47 139 l 47 1042 l 186 1042 l 186 215 z "},"X":{"ha":679,"x_min":47,"x_max":632,"o":"m 264 544 l 67 1042 l 217 1042 l 339 735 l 461 1042 l 613 1042 l 415 544 l 632 0 l 481 0 l 339 356 l 199 0 l 47 0 l 264 544 z "},"Y":{"ha":535,"x_min":47,"x_max":488,"o":"m 201 401 l 47 497 l 47 1042 l 186 1042 l 186 574 l 271 514 l 349 572 l 349 1042 l 488 1042 l 488 497 l 340 403 l 340 0 l 201 0 l 201 401 z "},"Z":{"ha":617,"x_min":47,"x_max":569,"o":"m 369 904 l 90 904 l 90 1043 l 419 1043 l 569 1044 l 246 139 l 531 139 l 531 0 l 47 0 l 369 904 z "},".":{"ha":233,"x_min":47,"x_max":186,"o":"m 186 0 l 47 0 l 47 142 l 186 142 l 186 0 z "},"a":{"ha":535,"x_min":47,"x_max":488,"o":"m 186 736 l 349 656 l 349 736 l 488 736 l 488 0 l 349 0 l 349 42 l 186 0 l 47 0 l 47 736 l 186 736 m 186 157 l 349 199 l 349 482 l 186 563 l 186 157 z "},"b":{"ha":604,"x_min":47,"x_max":557,"o":"m 557 736 l 557 0 l 418 0 l 186 49 l 186 0 l 47 0 l 47 1042 l 186 1042 l 186 639 l 418 736 l 557 736 m 418 568 l 186 472 l 186 203 l 418 153 l 418 568 z "},"c":{"ha":535,"x_min":47,"x_max":488,"o":"m 186 138 l 349 139 l 349 204 l 488 293 l 488 -1 l 117 -1 l 117 0 l 47 0 l 47 738 l 186 738 l 186 736 l 488 736 l 488 494 l 349 494 l 349 597 l 186 597 l 186 138 z "},"d":{"ha":604,"x_min":47,"x_max":557,"o":"m 186 736 l 418 642 l 418 1042 l 557 1042 l 557 0 l 418 0 l 418 49 l 186 0 l 47 0 l 47 736 l 186 736 m 186 153 l 418 203 l 418 475 l 186 569 l 186 153 z "},"e":{"ha":604,"x_min":47,"x_max":557,"o":"m 557 289 l 186 289 l 186 139 l 418 139 l 418 175 l 557 231 l 557 0 l 47 0 l 47 738 l 557 738 l 557 289 m 186 435 l 418 435 l 418 599 l 186 599 l 186 435 z "},"f":{"ha":535,"x_min":47,"x_max":488,"o":"m 186 0 l 47 0 l 47 915 l 488 915 l 488 776 l 186 776 l 186 528 l 375 639 l 444 519 l 186 367 l 186 0 z "},"g":{"ha":604,"x_min":47,"x_max":557,"o":"m 557 736 l 557 -299 l 47 -299 l 47 -160 l 418 -160 l 418 49 l 186 0 l 47 0 l 47 736 l 186 736 l 418 640 l 418 736 l 557 736 m 186 153 l 418 203 l 418 472 l 186 569 l 186 153 z "},"h":{"ha":604,"x_min":47,"x_max":557,"o":"m 186 1042 l 186 740 l 557 586 l 557 0 l 418 0 l 418 476 l 186 572 l 186 0 l 47 0 l 47 1042 l 186 1042 z "},"i":{"ha":233,"x_min":47,"x_max":186,"o":"m 186 0 l 47 0 l 47 736 l 186 736 l 186 0 m 186 831 l 47 831 l 47 972 l 186 972 l 186 831 z "},"j":{"ha":501,"x_min":47,"x_max":454,"o":"m 315 736 l 454 736 l 454 -311 l 385 -312 l 47 -312 l 47 -174 l 315 -174 l 315 736 m 315 972 l 454 972 l 454 831 l 315 831 l 315 972 z "},"k":{"ha":540,"x_min":47,"x_max":493,"o":"m 186 0 l 47 0 l 47 1042 l 186 1042 l 186 506 l 349 506 l 349 736 l 488 736 l 488 367 l 376 367 l 493 0 l 343 0 l 218 367 l 186 367 l 186 0 z "},"l":{"ha":535,"x_min":47,"x_max":488,"o":"m 186 1042 l 186 139 l 349 139 l 349 199 l 488 286 l 488 0 l 47 0 l 47 942 l 186 1042 z "},"m":{"ha":801,"x_min":47,"x_max":754,"o":"m 403 610 l 615 736 l 754 736 l 754 -1 l 615 -1 l 615 578 l 472 492 l 472 256 l 333 167 l 333 492 l 186 578 l 186 1 l 47 1 l 47 736 l 186 736 l 403 610 z "},"n":{"ha":535,"x_min":47,"x_max":488,"o":"m 186 736 l 488 582 l 488 0 l 349 0 l 349 478 l 186 563 l 186 0 l 47 0 l 47 736 l 186 736 z "},"o":{"ha":604,"x_min":47,"x_max":557,"o":"m 557 0 l 47 0 l 47 736 l 557 736 l 557 0 m 186 139 l 418 139 l 418 597 l 186 597 l 186 139 m 233 292 l 233 438 l 372 438 l 372 292 l 233 292 z "},"p":{"ha":604,"x_min":47,"x_max":557,"o":"m 186 736 l 186 642 l 418 736 l 557 736 l 557 0 l 418 0 l 186 49 l 186 -257 l 47 -257 l 47 736 l 186 736 m 418 569 l 186 475 l 186 203 l 418 153 l 418 569 z "},"q":{"ha":604,"x_min":47,"x_max":557,"o":"m 557 736 l 557 -257 l 418 -257 l 418 49 l 186 0 l 47 0 l 47 736 l 186 736 l 418 642 l 418 736 l 557 736 m 186 153 l 418 203 l 418 475 l 186 569 l 186 153 z "},"r":{"ha":518,"x_min":47,"x_max":471,"o":"m 471 736 l 471 464 l 332 464 l 332 560 l 186 481 l 188 0 l 49 0 l 47 736 l 186 736 l 186 657 l 332 736 l 471 736 z "},"s":{"ha":535,"x_min":47,"x_max":488,"o":"m 186 518 l 481 369 l 488 369 l 488 0 l 47 0 l 47 239 l 186 190 l 186 139 l 349 139 l 349 282 l 49 433 l 47 433 l 47 736 l 488 736 l 488 497 l 349 536 l 349 597 l 186 597 l 186 518 z "},"t":{"ha":535,"x_min":47,"x_max":488,"o":"m 186 1042 l 186 738 l 321 738 l 269 599 l 186 599 l 186 139 l 349 139 l 349 193 l 488 249 l 488 0 l 47 0 l 47 942 l 186 1042 z "},"u":{"ha":604,"x_min":47,"x_max":557,"o":"m 47 154 l 47 736 l 186 736 l 186 264 l 418 167 l 418 736 l 557 736 l 557 0 l 418 0 l 47 154 z "},"v":{"ha":604,"x_min":47,"x_max":557,"o":"m 186 218 l 303 156 l 418 218 l 418 736 l 557 736 l 557 139 l 303 0 l 47 139 l 47 736 l 186 736 l 186 218 z "},"w":{"ha":778,"x_min":47,"x_max":731,"o":"m 186 215 l 278 156 l 319 203 l 319 364 l 458 465 l 458 203 l 500 156 l 592 217 l 592 736 l 731 736 l 731 139 l 500 0 l 389 85 l 278 0 l 47 139 l 47 736 l 186 736 l 186 215 z "},"x":{"ha":679,"x_min":47,"x_max":632,"o":"m 47 0 l 264 388 l 65 740 l 215 740 l 339 521 l 461 740 l 611 740 l 414 388 l 632 0 l 481 0 l 339 253 l 199 0 l 47 0 z "},"y":{"ha":604,"x_min":47,"x_max":557,"o":"m 47 -299 l 47 -160 l 418 -160 l 418 63 l 303 0 l 47 139 l 47 736 l 186 736 l 186 218 l 303 156 l 418 218 l 418 736 l 557 736 l 557 -299 l 47 -299 z "},"z":{"ha":600,"x_min":47,"x_max":553,"o":"m 336 597 l 75 597 l 75 736 l 553 736 l 264 139 l 531 139 l 531 0 l 47 0 l 336 597 z "},"-":{"ha":567,"x_min":47,"x_max":519,"o":"m 47 550 l 519 550 l 519 411 l 47 411 l 47 550 z "},"\n":{"ha":381,"x_min":0,"x_max":0,"o":""},"+":{"ha":567,"x_min":47,"x_max":519,"o":"m 47 403 l 47 542 l 214 542 l 214 674 l 353 674 l 353 542 l 519 542 l 519 403 l 353 403 l 353 271 l 214 271 l 214 403 l 47 403 z "},"*":{"ha":397,"x_min":47,"x_max":350,"o":"m 47 739 l 47 825 l 94 825 l 61 858 l 122 919 l 156 886 l 156 933 l 242 933 l 242 886 l 275 919 l 336 858 l 303 825 l 350 825 l 350 739 l 303 739 l 336 706 l 275 644 l 242 678 l 242 632 l 156 632 l 156 678 l 122 644 l 61 706 l 94 739 l 47 739 z "},"^":{"ha":419,"x_min":47,"x_max":372,"o":"m 131 542 l 47 542 l 168 822 l 251 822 l 372 542 l 289 542 l 210 726 l 131 542 z "},"˜":{"ha":476,"x_min":47,"x_max":429,"o":"m 429 913 q 377 840 404 860 q 322 821 350 821 q 275 831 299 821 q 229 853 251 840 q 186 875 207 865 q 146 885 165 885 q 94 846 114 885 l 47 876 q 99 949 72 929 q 154 968 126 968 q 201 958 178 968 q 247 936 225 949 q 291 914 269 924 q 331 904 313 904 q 382 943 363 904 l 429 913 z "},"/":{"ha":433,"x_min":47,"x_max":386,"o":"m 386 972 l 133 0 l 47 0 l 300 972 l 386 972 z "},"\\":{"ha":433,"x_min":47,"x_max":386,"o":"m 386 0 l 300 0 l 47 972 l 133 972 l 386 0 z "},":":{"ha":233,"x_min":47,"x_max":186,"o":"m 186 0 l 47 0 l 47 142 l 186 142 l 186 0 m 186 594 l 47 594 l 47 736 l 186 736 l 186 594 z "},";":{"ha":233,"x_min":47,"x_max":186,"o":"m 186 594 l 47 594 l 47 736 l 186 736 l 186 594 m 186 -71 l 124 -71 l 107 0 l 47 0 l 47 142 l 186 142 l 186 -71 z "},"<":{"ha":567,"x_min":47,"x_max":519,"o":"m 215 472 l 519 346 l 519 207 l 47 403 l 47 542 l 519 736 l 519 597 l 215 472 z "},"=":{"ha":567,"x_min":47,"x_max":519,"o":"m 47 639 l 519 639 l 519 500 l 47 500 l 47 639 m 47 414 l 519 414 l 519 275 l 47 275 l 47 414 z "},">":{"ha":567,"x_min":47,"x_max":519,"o":"m 519 403 l 47 207 l 47 346 l 351 472 l 47 597 l 47 736 l 519 542 l 519 403 z "},"!":{"ha":233,"x_min":47,"x_max":186,"o":"m 47 972 l 186 972 l 186 231 l 47 231 l 47 972 m 47 140 l 186 140 l 186 0 l 47 0 l 47 140 z "},"?":{"ha":535,"x_min":47,"x_max":488,"o":"m 488 474 l 186 335 l 186 231 l 47 231 l 47 453 l 349 589 l 349 903 l 186 903 l 186 732 l 47 732 l 47 1042 l 488 1042 l 488 474 m 47 142 l 186 142 l 186 0 l 47 0 l 47 142 z "},"'":{"ha":201,"x_min":47,"x_max":154,"o":"m 47 972 l 154 972 l 154 736 l 47 736 l 47 972 z "},"\"":{"ha":349,"x_min":47,"x_max":301,"o":"m 47 972 l 154 972 l 154 736 l 47 736 l 47 972 m 193 972 l 301 972 l 301 736 l 193 736 l 193 972 z "},"#":{"ha":868,"x_min":47,"x_max":821,"o":"m 329 972 l 415 972 l 372 694 l 586 694 l 629 972 l 715 972 l 672 694 l 821 694 l 821 608 l 658 608 l 625 390 l 821 390 l 821 304 l 611 304 l 565 0 l 479 0 l 525 304 l 311 304 l 265 0 l 178 0 l 225 304 l 47 304 l 47 390 l 239 390 l 272 608 l 47 608 l 47 694 l 286 694 l 329 972 m 325 390 l 539 390 l 572 608 l 358 608 l 325 390 z "},"@":{"ha":1240,"x_min":243,"x_max":1060,"o":"m 278 97 q 253 108 264 97 q 243 132 243 118 l 243 879 q 253 904 243 894 q 278 914 264 914 l 1025 914 q 1050 904 1040 914 q 1060 879 1060 894 l 1060 132 q 1050 108 1060 118 q 1025 97 1040 97 l 278 97 m 313 844 l 313 167 l 990 167 l 990 844 l 313 844 m 608 700 l 694 657 l 694 700 l 768 700 l 768 308 l 694 308 l 694 331 l 608 308 l 535 308 l 535 700 l 608 700 m 608 392 l 694 414 l 694 564 l 608 608 l 608 392 z "},"$":{"ha":535,"x_min":47,"x_max":488,"o":"m 186 679 l 486 453 l 488 453 l 488 -1 l 349 0 l 325 0 l 325 -82 l 203 -82 l 203 0 l 186 -1 l 47 -1 l 47 222 l 186 308 l 186 139 l 349 139 l 349 371 l 47 588 l 47 1042 l 488 1042 l 488 818 l 349 732 l 349 903 l 186 903 l 186 679 m 203 1124 l 325 1124 l 325 1042 l 203 1042 l 203 1124 z "},"€":{"ha":569,"x_min":47,"x_max":522,"o":"m 221 139 l 383 139 l 383 438 l 522 526 l 522 0 l 82 0 l 82 304 l 47 304 l 47 443 l 82 443 l 82 529 l 47 529 l 47 668 l 82 668 l 82 1044 l 522 1044 l 522 803 l 383 803 l 383 906 l 221 906 l 221 668 l 343 668 l 343 529 l 221 529 l 221 443 l 342 443 l 342 304 l 221 304 l 221 139 z "},"%":{"ha":721,"x_min":54,"x_max":682,"o":"m 606 422 l 508 422 l 508 117 l 606 422 m 529 65 l 617 65 l 617 342 l 529 65 m 217 907 l 119 907 l 119 601 l 217 907 m 140 550 l 228 550 l 228 826 l 140 550 m 443 972 l 529 972 l 276 0 l 190 0 l 443 972 m 443 0 l 443 486 l 682 486 l 682 0 l 443 0 m 54 485 l 54 972 l 293 972 l 293 485 l 54 485 z "},"&":{"ha":604,"x_min":47,"x_max":557,"o":"m 531 778 l 389 778 l 389 903 l 189 903 l 189 647 l 332 611 l 332 429 l 189 394 l 189 139 l 389 139 l 390 469 l 342 457 l 342 596 l 557 636 l 557 510 l 531 503 l 531 0 l 47 0 l 47 504 l 139 521 l 47 538 l 47 1042 l 531 1042 l 531 778 z "},"(":{"ha":313,"x_min":47,"x_max":265,"o":"m 126 -122 q 67 149 88 10 q 47 428 47 289 q 67 706 47 568 q 126 972 88 843 l 265 972 q 206 706 226 843 q 186 428 186 568 q 206 149 186 289 q 265 -122 226 10 l 126 -122 z "},")":{"ha":313,"x_min":47,"x_max":265,"o":"m 47 -122 q 107 149 88 10 q 126 428 126 289 q 107 706 126 568 q 47 972 88 843 l 186 972 q 246 706 226 843 q 265 428 265 568 q 246 149 265 289 q 186 -122 226 10 l 47 -122 z "},"{":{"ha":536,"x_min":47,"x_max":489,"o":"m 440 976 q 465 976 453 976 q 489 975 476 976 l 489 836 q 465 838 476 838 q 440 838 453 838 q 415 837 429 838 q 386 833 400 836 q 360 824 372 831 q 343 806 349 818 q 335 776 338 793 q 332 740 333 758 q 330 703 331 721 q 328 671 329 685 q 303 533 321 593 q 247 432 285 472 q 292 366 276 403 q 315 290 307 329 q 326 211 324 250 q 331 139 328 172 q 338 81 333 106 q 354 44 343 56 q 362 41 358 43 q 369 36 365 39 q 404 28 386 29 q 440 26 422 26 q 465 27 453 26 q 489 29 476 28 l 489 -110 q 465 -112 476 -111 q 440 -112 453 -112 q 354 -103 394 -112 q 281 -74 314 -94 q 227 -19 249 -53 q 199 64 206 14 q 190 170 192 117 q 175 276 188 224 q 158 323 168 306 q 131 349 147 340 q 95 360 115 357 q 47 363 75 363 l 47 503 q 118 510 88 503 q 165 560 149 518 q 185 655 182 604 q 194 756 189 706 q 213 851 199 806 q 267 928 228 896 q 349 967 304 958 q 440 976 393 976 z "},"|":{"ha":186,"x_min":47,"x_max":139,"o":"m 47 1107 l 139 1107 l 139 -214 l 47 -214 l 47 1107 z "},"}":{"ha":536,"x_min":47,"x_max":489,"o":"m 96 -112 q 72 -112 83 -112 q 47 -110 60 -111 l 47 29 q 72 27 60 28 q 96 26 83 26 q 122 27 107 26 q 150 31 136 28 q 176 41 164 35 q 193 60 188 47 q 201 90 199 72 q 205 126 204 107 q 206 163 206 144 q 208 194 207 181 q 233 332 215 272 q 290 432 251 392 q 231 535 247 476 q 210 652 215 594 q 203 756 206 710 q 182 821 200 803 q 174 824 178 822 q 167 829 171 826 q 132 837 150 836 q 96 838 114 838 q 72 838 83 838 q 47 836 60 838 l 47 975 q 72 976 60 976 q 96 976 83 976 q 182 967 142 976 q 255 938 222 958 q 309 885 288 918 q 338 801 331 851 q 347 695 344 749 q 361 589 349 642 q 378 542 368 560 q 405 517 389 525 q 442 506 421 508 q 489 503 463 503 l 489 363 q 418 355 449 363 q 371 306 388 347 q 351 210 354 261 q 342 110 347 160 q 324 15 338 60 q 269 -62 310 -31 q 188 -103 232 -93 q 96 -112 143 -112 z "},"[":{"ha":354,"x_min":47,"x_max":307,"o":"m 47 -147 l 47 972 l 307 972 l 307 831 l 186 831 l 186 -6 l 307 -6 l 307 -147 l 47 -147 z "},"]":{"ha":356,"x_min":47,"x_max":308,"o":"m 47 -147 l 47 -6 l 168 -6 l 168 831 l 49 831 l 49 972 l 308 972 l 307 831 l 307 -147 l 47 -147 z "},"‘":{"ha":233,"x_min":47,"x_max":186,"o":"m 47 907 l 110 907 l 126 836 l 186 836 l 186 694 l 47 694 l 47 907 z "},"’":{"ha":233,"x_min":47,"x_max":186,"o":"m 186 694 l 124 694 l 107 765 l 47 765 l 47 907 l 186 907 l 186 694 z "},"“":{"ha":407,"x_min":47,"x_max":360,"o":"m 47 907 l 110 907 l 126 836 l 186 836 l 186 694 l 47 694 l 47 907 m 221 907 l 283 907 l 300 836 l 360 836 l 360 694 l 221 694 l 221 907 z "},"”":{"ha":407,"x_min":47,"x_max":360,"o":"m 360 694 l 297 694 l 281 765 l 221 765 l 221 907 l 360 907 l 360 694 m 186 694 l 124 694 l 107 765 l 47 765 l 47 907 l 186 907 l 186 694 z "},"‚":{"ha":233,"x_min":47,"x_max":186,"o":"m 186 -71 l 124 -71 l 107 0 l 47 0 l 47 142 l 186 142 l 186 -71 z "},"„":{"ha":407,"x_min":47,"x_max":360,"o":"m 186 -71 l 124 -71 l 107 0 l 47 0 l 47 142 l 186 142 l 186 -71 m 360 -71 l 297 -71 l 281 0 l 221 0 l 221 142 l 360 142 l 360 -71 z "},"•":{"ha":233,"x_min":47,"x_max":186,"o":"m 186 386 l 47 386 l 47 528 l 186 528 l 186 386 z "},"_":{"ha":756,"x_min":47,"x_max":708,"o":"m 47 -117 l 708 -117 l 708 -181 l 47 -181 l 47 -117 z "},"–":{"ha":517,"x_min":47,"x_max":469,"o":"m 47 413 l 469 413 l 469 349 l 47 349 l 47 413 z "},"—":{"ha":1285,"x_min":47,"x_max":1238,"o":"m 47 413 l 1238 413 l 1238 349 l 47 349 l 47 413 z "},"¯":{"ha":674,"x_min":47,"x_max":626,"o":"m 47 894 l 626 894 l 626 831 l 47 831 l 47 894 z "},"¬":{"ha":517,"x_min":47,"x_max":469,"o":"m 469 524 l 469 371 l 406 371 l 406 460 l 47 460 l 47 524 l 469 524 z "},"™":{"ha":472,"x_min":47,"x_max":425,"o":"m 257 972 l 321 935 l 385 971 l 425 971 l 425 786 l 385 786 l 385 924 l 342 900 l 342 856 l 300 829 l 300 900 l 257 925 l 257 788 l 215 788 l 215 972 l 257 972 m 179 972 l 179 931 l 133 931 l 133 788 l 93 788 l 93 931 l 47 931 l 47 971 l 179 972 z "},"®":{"ha":647,"x_min":36,"x_max":611,"o":"m 71 218 q 46 228 56 218 q 36 253 36 238 l 36 758 q 46 783 36 774 q 71 793 56 793 l 576 793 q 601 783 592 793 q 611 758 611 774 l 611 253 q 601 228 611 238 q 576 218 592 218 l 71 218 m 106 724 l 106 288 l 542 288 l 542 724 l 106 724 m 301 324 l 253 324 l 253 693 l 408 693 l 408 493 l 369 468 l 410 324 l 357 324 l 324 436 l 301 422 l 301 324 m 301 481 l 360 519 l 360 643 l 301 643 l 301 481 z "},"©":{"ha":647,"x_min":36,"x_max":611,"o":"m 71 218 q 46 228 56 218 q 36 253 36 238 l 36 758 q 46 783 36 774 q 71 793 56 793 l 576 793 q 601 783 592 793 q 611 758 611 774 l 611 253 q 601 228 611 238 q 576 218 592 218 l 71 218 m 106 724 l 106 288 l 542 288 l 542 724 l 106 724 m 303 372 l 360 372 l 360 478 l 410 508 l 410 324 l 253 324 l 253 692 l 410 692 l 410 607 l 360 607 l 360 643 l 303 643 l 303 372 z "},"¤":{"ha":701,"x_min":47,"x_max":654,"o":"m 147 510 q 197 351 147 403 q 354 299 246 299 q 510 349 460 299 q 560 506 560 400 q 510 662 560 611 q 354 713 460 713 q 212 674 265 713 q 149 542 158 635 l 147 510 m 53 506 q 131 728 53 650 q 354 806 208 806 q 576 728 499 806 q 654 506 654 650 q 576 283 654 361 q 354 206 499 206 q 131 283 208 206 q 53 506 53 361 m 108 882 l 246 744 l 185 672 l 47 810 l 108 882 m 439 744 l 576 882 l 636 810 l 499 672 l 439 744 m 246 260 l 111 126 l 114 129 l 47 194 l 185 332 l 246 260 m 569 129 l 432 267 l 504 328 l 642 190 l 569 129 z "},"¢":{"ha":535,"x_min":47,"x_max":488,"o":"m 186 138 l 349 139 l 349 204 l 488 293 l 488 -1 l 325 -1 l 325 -82 l 203 -82 l 203 -1 l 117 -1 l 117 0 l 47 0 l 47 738 l 186 738 l 186 736 l 488 736 l 488 494 l 349 494 l 349 597 l 186 597 l 186 138 m 203 736 l 203 818 l 325 818 l 325 736 l 203 736 z "},"£":{"ha":640,"x_min":47,"x_max":593,"o":"m 114 600 q 132 768 114 690 q 185 903 150 846 q 273 994 221 961 q 392 1028 325 1028 q 593 963 481 1028 l 524 842 q 396 886 449 886 q 326 862 354 886 q 283 798 299 838 q 260 706 267 758 q 253 600 253 654 q 253 581 253 590 q 254 563 253 572 l 463 563 l 463 424 l 264 424 q 268 376 267 400 q 269 329 269 353 q 264 226 269 272 q 243 139 258 179 l 515 139 l 515 0 l 47 0 l 47 103 q 93 151 76 128 q 118 202 110 175 q 128 260 126 229 q 131 329 131 292 q 129 376 131 353 q 125 424 128 400 l 58 424 l 58 563 l 115 563 q 114 581 114 572 q 114 600 114 590 z "},"¥":{"ha":567,"x_min":47,"x_max":519,"o":"m 217 401 l 63 497 l 63 1042 l 201 1042 l 201 574 l 286 514 l 364 572 l 364 1042 l 503 1042 l 503 497 l 356 403 l 356 392 l 519 392 l 519 253 l 356 253 l 356 208 l 519 208 l 519 69 l 356 69 l 356 0 l 217 0 l 217 69 l 47 69 l 47 208 l 217 208 l 217 253 l 47 253 l 47 392 l 217 392 l 217 401 z "},"ƒ":{"ha":572,"x_min":0,"x_max":0,"o":""},"−":{"ha":567,"x_min":47,"x_max":519,"o":"m 47 542 l 519 542 l 519 403 l 47 403 l 47 542 z "},"±":{"ha":567,"x_min":47,"x_max":519,"o":"m 47 449 l 47 588 l 214 588 l 214 719 l 353 719 l 353 588 l 519 588 l 519 449 l 353 449 l 353 318 l 214 318 l 214 449 l 47 449 m 47 133 l 47 272 l 519 272 l 519 133 l 47 133 z "},"×":{"ha":476,"x_min":47,"x_max":429,"o":"m 332 664 l 429 565 l 336 472 l 429 379 l 332 281 l 239 374 l 146 281 l 47 379 l 140 472 l 47 565 l 146 664 l 239 569 l 332 664 z "},"÷":{"ha":567,"x_min":47,"x_max":519,"o":"m 47 550 l 519 550 l 519 411 l 47 411 l 47 550 m 353 222 l 214 222 l 214 364 l 353 364 l 353 222 m 353 596 l 214 596 l 214 738 l 353 738 l 353 596 z "},"¦":{"ha":161,"x_min":47,"x_max":114,"o":"m 47 972 l 114 972 l 114 589 l 47 589 l 47 972 m 47 226 l 114 226 l 114 -157 l 47 -157 l 47 226 z "},"…":{"ha":604,"x_min":47,"x_max":557,"o":"m 186 0 l 47 0 l 47 142 l 186 142 l 186 0 m 369 0 l 231 0 l 231 142 l 369 142 l 369 0 m 557 0 l 418 0 l 418 142 l 557 142 l 557 0 z "},"·":{"ha":233,"x_min":47,"x_max":186,"o":"m 186 419 l 47 419 l 47 561 l 186 561 l 186 419 z "},"¡":{"ha":233,"x_min":75,"x_max":214,"o":"m 214 -236 l 75 -236 l 75 506 l 214 506 l 214 -236 m 214 596 l 75 596 l 75 736 l 214 736 l 214 596 z "},"¿":{"ha":535,"x_min":75,"x_max":517,"o":"m 75 261 l 376 400 l 376 504 l 515 504 l 515 282 l 214 146 l 214 -168 l 376 -168 l 376 3 l 515 3 l 515 -307 l 75 -307 l 75 261 m 515 593 l 376 593 l 376 735 l 515 735 l 515 593 z "},"°":{"ha":290,"x_min":86,"x_max":500,"o":"m 197 1283 q 223 1213 197 1239 q 293 1188 249 1188 q 363 1213 338 1188 q 389 1283 389 1239 q 363 1353 389 1328 q 293 1378 338 1378 q 226 1355 254 1378 q 197 1292 197 1332 l 197 1283 m 86 1283 q 101 1366 86 1328 q 144 1431 117 1404 q 210 1474 172 1458 q 293 1489 247 1489 q 376 1474 339 1489 q 442 1431 414 1458 q 485 1366 469 1404 q 500 1283 500 1328 q 485 1200 500 1238 q 442 1135 469 1163 q 376 1092 414 1107 q 293 1076 339 1076 q 210 1092 247 1076 q 144 1135 172 1107 q 101 1200 117 1163 q 86 1283 86 1238 z "},"ª":{"ha":535,"x_min":47,"x_max":488,"o":"m 186 736 l 349 656 l 349 736 l 488 736 l 488 0 l 349 0 l 349 42 l 186 0 l 47 0 l 47 736 l 186 736 m 186 157 l 349 199 l 349 482 l 186 563 l 186 157 z "},"º":{"ha":604,"x_min":47,"x_max":557,"o":"m 557 0 l 47 0 l 47 736 l 557 736 l 557 0 m 186 139 l 418 139 l 418 597 l 186 597 l 186 139 m 233 292 l 233 438 l 372 438 l 372 292 l 233 292 z "},"¹":{"ha":350,"x_min":47,"x_max":303,"o":"m 303 0 l 164 0 l 164 901 l 47 901 l 47 1040 l 164 1042 l 303 1042 l 303 0 z "},"²":{"ha":535,"x_min":47,"x_max":488,"o":"m 186 371 l 186 139 l 349 139 l 349 308 l 488 222 l 488 0 l 47 0 l 47 453 l 49 453 l 349 679 l 349 903 l 186 903 l 186 732 l 47 818 l 47 1042 l 488 1042 l 488 588 l 186 371 z "},"³":{"ha":535,"x_min":47,"x_max":488,"o":"m 47 903 l 47 1042 l 488 1042 l 488 538 l 397 521 l 488 504 l 488 0 l 47 0 l 47 139 l 346 139 l 346 394 l 203 429 l 203 611 l 347 647 l 347 903 l 47 903 z "},"⁄":{"ha":214,"x_min":0,"x_max":0,"o":""},"¼":{"ha":536,"x_min":47,"x_max":489,"o":"m 399 0 l 260 0 l 260 901 l 143 901 l 143 1040 l 260 1042 l 399 1042 l 399 0 m 350 0 l 350 300 l 47 456 l 47 1042 l 186 1042 l 186 558 l 350 475 l 350 1042 l 489 1042 l 489 0 l 350 0 z "},"½":{"ha":536,"x_min":47,"x_max":488,"o":"m 399 0 l 260 0 l 260 901 l 143 901 l 143 1040 l 260 1042 l 399 1042 l 399 0 m 186 371 l 186 139 l 349 139 l 349 308 l 488 222 l 488 0 l 47 0 l 47 453 l 49 453 l 349 679 l 349 903 l 186 903 l 186 732 l 47 818 l 47 1042 l 488 1042 l 488 588 l 186 371 z "},"¾":{"ha":538,"x_min":47,"x_max":490,"o":"m 50 903 l 50 1042 l 490 1042 l 490 538 l 400 521 l 490 504 l 490 0 l 50 0 l 50 139 l 349 139 l 349 394 l 206 429 l 206 611 l 350 647 l 350 903 l 50 903 m 350 0 l 350 300 l 47 456 l 47 1042 l 186 1042 l 186 558 l 350 475 l 350 1042 l 489 1042 l 489 0 l 350 0 z "},"‰":{"ha":999,"x_min":54,"x_max":960,"o":"m 606 422 l 508 422 l 508 117 l 606 422 m 529 65 l 617 65 l 617 342 l 529 65 m 883 422 l 786 422 l 786 117 l 883 422 m 807 65 l 894 65 l 894 342 l 807 65 m 217 907 l 119 907 l 119 601 l 217 907 m 140 550 l 228 550 l 228 826 l 140 550 m 443 972 l 529 972 l 276 0 l 190 0 l 443 972 m 443 0 l 443 486 l 682 486 l 682 0 l 443 0 m 721 0 l 721 488 l 960 488 l 960 0 l 721 0 m 54 485 l 54 972 l 293 972 l 293 485 l 54 485 z "},"µ":{"ha":604,"x_min":47,"x_max":557,"o":"m 186 97 l 186 -187 l 47 -187 l 47 738 l 186 738 l 186 264 l 418 167 l 418 738 l 557 738 l 557 0 l 418 0 l 186 97 z "},"¶":{"ha":628,"x_min":47,"x_max":581,"o":"m 269 972 l 581 972 l 581 0 l 515 0 l 515 917 l 429 917 l 429 0 l 364 0 l 364 522 l 269 522 q 178 538 219 522 q 108 583 138 554 q 63 653 79 613 q 47 744 47 694 l 47 750 q 63 841 47 800 q 108 911 79 882 q 178 956 138 940 q 269 972 219 972 z "},"§":{"ha":536,"x_min":47,"x_max":489,"o":"m 186 678 l 488 528 l 488 -201 l 47 -201 l 47 39 l 186 -11 l 186 -62 l 350 -62 l 350 81 l 49 233 l 47 233 l 47 528 l 176 528 l 49 593 l 47 593 l 47 892 l 489 892 l 489 651 l 350 692 l 350 751 l 186 751 l 186 678 m 349 393 l 186 393 l 186 318 l 349 236 l 349 393 z "},"†":{"ha":558,"x_min":47,"x_max":511,"o":"m 317 972 l 317 797 l 511 797 l 511 694 l 317 694 l 317 0 l 242 0 l 242 694 l 47 694 l 47 797 l 242 797 l 242 972 l 317 972 z "},"‡":{"ha":558,"x_min":47,"x_max":511,"o":"m 317 972 l 317 797 l 511 797 l 511 694 l 317 694 l 317 390 l 511 390 l 511 288 l 317 288 l 317 0 l 242 0 l 242 288 l 47 288 l 47 390 l 242 390 l 242 694 l 47 694 l 47 797 l 242 797 l 242 972 l 317 972 z "},"~":{"ha":546,"x_min":33,"x_max":511,"o":"m 33 514 q 97 590 63 558 q 190 622 131 622 q 245 613 218 622 q 297 590 272 603 q 344 568 322 578 q 383 558 367 558 q 407 569 397 558 q 425 590 417 581 l 511 518 q 456 467 483 488 q 383 447 428 447 q 329 457 357 447 q 276 479 301 467 q 229 501 251 492 q 190 511 207 511 q 153 493 167 511 q 129 458 140 475 l 33 514 z "},"‹":{"ha":392,"x_min":47,"x_max":344,"o":"m 153 442 l 344 363 l 344 275 l 47 397 l 47 485 l 344 608 l 344 521 l 153 442 z "},"›":{"ha":392,"x_min":47,"x_max":344,"o":"m 47 275 l 47 363 l 239 442 l 47 521 l 47 608 l 344 485 l 344 397 l 47 275 z "},"«":{"ha":657,"x_min":47,"x_max":610,"o":"m 344 275 l 47 397 l 47 485 l 344 608 l 344 521 l 153 442 l 344 363 l 344 275 m 418 442 l 610 363 l 610 275 l 314 397 l 314 485 l 610 608 l 610 521 l 418 442 z "},"»":{"ha":657,"x_min":47,"x_max":610,"o":"m 344 397 l 47 275 l 47 363 l 239 442 l 47 521 l 47 608 l 344 485 l 344 397 m 314 275 l 314 363 l 504 442 l 314 521 l 314 608 l 610 485 l 610 397 l 314 275 z "},"˘":{"ha":381,"x_min":31,"x_max":350,"o":"m 350 936 q 306 821 350 865 q 190 776 261 776 q 75 821 119 776 q 31 936 31 865 l 142 936 q 190 888 142 888 q 226 900 215 888 q 239 936 238 913 l 350 936 z "},"˙":{"ha":232,"x_min":47,"x_max":185,"o":"m 47 888 q 66 938 47 919 q 117 957 85 957 q 166 938 147 957 q 185 888 185 919 q 166 838 185 857 q 117 819 147 819 q 66 838 85 819 q 47 888 47 857 z "},"˚":{"ha":381,"x_min":74,"x_max":488,"o":"m 281 982 q 430 925 375 982 q 488 776 485 868 q 430 627 485 685 q 281 569 375 569 q 131 627 186 569 q 74 776 76 685 q 132 925 76 868 q 281 982 188 982 m 281 871 q 213 849 242 871 q 185 785 185 826 l 185 769 q 213 704 185 728 q 281 681 240 681 q 348 703 319 681 q 376 768 376 726 l 376 783 q 349 848 376 825 q 281 871 321 871 z "},"˝":{"ha":479,"x_min":47,"x_max":432,"o":"m 147 972 l 254 972 l 154 803 l 47 803 l 147 972 m 325 972 l 432 972 l 332 803 l 225 803 l 325 972 z "},"˛":{"ha":358,"x_min":47,"x_max":311,"o":"m 289 51 q 268 -36 289 0 q 223 -97 247 -72 q 178 -139 199 -122 q 158 -169 158 -156 q 169 -190 158 -185 q 192 -194 181 -194 q 275 -176 232 -194 l 311 -282 q 253 -299 283 -293 q 192 -306 222 -306 q 139 -296 165 -306 q 92 -269 113 -286 q 60 -228 72 -253 q 47 -175 47 -204 q 67 -102 47 -131 q 113 -51 88 -74 q 158 -5 138 -28 q 178 51 178 18 l 289 51 z "},"ˇ":{"ha":536,"x_min":47,"x_max":489,"o":"m 489 988 l 356 806 l 181 806 l 47 988 l 156 988 l 268 885 l 381 988 l 489 988 z "},"ı":{"ha":233,"x_min":47,"x_max":186,"o":"m 186 0 l 47 0 l 47 738 l 186 738 l 186 0 z "},"`":{"ha":301,"x_min":47,"x_max":254,"o":"m 147 803 l 47 972 l 154 972 l 254 803 l 147 803 z "},"ˆ":{"ha":536,"x_min":47,"x_max":489,"o":"m 47 806 l 181 988 l 356 988 l 489 806 l 381 806 l 268 908 l 156 806 l 47 806 z "},"¨":{"ha":232,"x_min":-161,"x_max":185,"o":"m -161 888 q -142 938 -161 919 q -92 957 -124 957 q -42 938 -61 957 q -24 888 -24 919 q -42 838 -24 857 q -92 819 -61 819 q -142 838 -124 819 q -161 888 -161 857 m 47 888 q 66 938 47 919 q 117 957 85 957 q 166 938 147 957 q 185 888 185 919 q 166 838 185 857 q 117 819 147 819 q 66 838 85 819 q 47 888 47 857 z "},"´":{"ha":301,"x_min":47,"x_max":254,"o":"m 147 972 l 254 972 l 154 803 l 47 803 l 147 972 z "},"¸":{"ha":358,"x_min":57,"x_max":321,"o":"m 299 51 q 278 -36 299 0 q 233 -97 257 -72 q 188 -139 208 -122 q 168 -169 168 -156 q 179 -190 168 -185 q 201 -194 190 -194 q 285 -176 242 -194 l 321 -282 q 263 -299 293 -293 q 201 -306 232 -306 q 149 -296 175 -306 q 102 -269 122 -286 q 69 -228 82 -253 q 57 -175 57 -204 q 77 -102 57 -131 q 122 -51 97 -74 q 167 -5 147 -28 q 188 51 188 18 l 299 51 z "},"Þ":{"ha":935,"x_min":0,"x_max":0,"o":""},"þ":{"ha":949,"x_min":0,"x_max":0,"o":""},"ß":{"ha":910,"x_min":0,"x_max":0,"o":""},"ð":{"ha":604,"x_min":47,"x_max":557,"o":"m 418 0 l 418 426 l 47 426 l 47 1042 l 557 1042 l 557 0 l 418 0 m 418 903 l 186 903 l 186 565 l 418 565 l 418 903 z "},",":{"ha":233,"x_min":47,"x_max":186,"o":"m 186 -71 l 124 -71 l 107 0 l 47 0 l 47 142 l 186 142 l 186 -71 z "},"À":{"ha":536,"x_min":47,"x_max":489,"o":"m 186 0 l 47 0 l 47 1044 l 489 1044 l 489 0 l 350 0 l 350 388 l 186 276 l 186 0 m 186 443 l 350 554 l 350 906 l 186 906 l 186 443 m 264 1081 l 164 1250 l 271 1250 l 371 1081 l 264 1081 z "},"Á":{"ha":536,"x_min":47,"x_max":489,"o":"m 186 0 l 47 0 l 47 1044 l 489 1044 l 489 0 l 350 0 l 350 388 l 186 276 l 186 0 m 186 443 l 350 554 l 350 906 l 186 906 l 186 443 m 264 1250 l 371 1250 l 271 1081 l 164 1081 l 264 1250 z "},"Â":{"ha":536,"x_min":47,"x_max":489,"o":"m 186 0 l 47 0 l 47 1044 l 489 1044 l 489 0 l 350 0 l 350 388 l 186 276 l 186 0 m 186 443 l 350 554 l 350 906 l 186 906 l 186 443 m 47 1083 l 181 1265 l 356 1265 l 489 1083 l 381 1083 l 268 1186 l 156 1083 l 47 1083 z "},"Ã":{"ha":536,"x_min":47,"x_max":489,"o":"m 186 0 l 47 0 l 47 1044 l 489 1044 l 489 0 l 350 0 l 350 388 l 186 276 l 186 0 m 186 443 l 350 554 l 350 906 l 186 906 l 186 443 m 458 1190 q 406 1118 433 1138 q 351 1099 379 1099 q 304 1108 328 1099 q 258 1131 281 1118 q 215 1153 236 1143 q 175 1163 194 1163 q 124 1124 143 1163 l 76 1154 q 128 1226 101 1207 q 183 1246 156 1246 q 231 1236 207 1246 q 276 1214 254 1226 q 320 1192 299 1201 q 360 1182 342 1182 q 411 1221 392 1182 l 458 1190 z "},"Ä":{"ha":536,"x_min":47,"x_max":489,"o":"m 186 0 l 47 0 l 47 1044 l 489 1044 l 489 0 l 350 0 l 350 388 l 186 276 l 186 0 m 186 443 l 350 554 l 350 906 l 186 906 l 186 443 m 96 1165 q 115 1216 96 1197 q 165 1235 133 1235 q 215 1216 196 1235 q 233 1165 233 1197 q 215 1116 233 1135 q 165 1097 196 1097 q 115 1116 133 1097 q 96 1165 96 1135 m 304 1165 q 323 1216 304 1197 q 374 1235 342 1235 q 423 1216 404 1235 q 442 1165 442 1197 q 423 1116 442 1135 q 374 1097 404 1097 q 323 1116 342 1097 q 304 1165 304 1135 z "},"Å":{"ha":536,"x_min":47,"x_max":565,"o":"m 186 0 l 47 0 l 47 1044 l 489 1044 l 489 0 l 350 0 l 350 388 l 186 276 l 186 0 m 186 443 l 350 554 l 350 906 l 186 906 l 186 443 m 358 1260 q 508 1203 453 1260 q 565 1054 563 1146 q 508 905 563 963 q 358 847 453 847 q 209 905 264 847 q 151 1054 154 963 q 210 1203 154 1146 q 358 1260 265 1260 m 358 1149 q 291 1126 319 1149 q 263 1063 263 1104 l 263 1047 q 290 982 263 1006 q 358 958 318 958 q 426 981 397 958 q 454 1046 454 1004 l 454 1061 q 426 1126 454 1103 q 358 1149 399 1149 z "},"Æ":{"ha":1099,"x_min":47,"x_max":1051,"o":"m 186 0 l 47 0 l 47 1044 l 489 1044 l 489 0 l 350 0 l 350 388 l 186 276 l 186 0 m 186 443 l 350 554 l 350 906 l 186 906 l 186 443 m 750 139 l 1051 139 l 1051 0 l 611 0 l 611 1042 l 1051 1042 l 1051 903 l 750 903 l 750 433 l 939 546 l 1008 425 l 750 272 l 750 139 z "},"Ç":{"ha":535,"x_min":47,"x_max":488,"o":"m 186 139 l 349 139 l 349 438 l 488 526 l 488 0 l 47 0 l 47 1044 l 488 1044 l 488 803 l 349 803 l 349 906 l 186 906 l 186 139 m 388 51 q 367 -36 388 0 q 322 -97 346 -72 q 277 -139 297 -122 q 257 -169 257 -156 q 268 -190 257 -185 q 290 -194 279 -194 q 374 -176 331 -194 l 410 -282 q 351 -299 382 -293 q 290 -306 321 -306 q 238 -296 264 -306 q 191 -269 211 -286 q 158 -228 171 -253 q 146 -175 146 -204 q 166 -102 146 -131 q 211 -51 186 -74 q 256 -5 236 -28 q 276 51 276 18 l 388 51 z "},"Ð":{"ha":610,"x_min":47,"x_max":563,"o":"m 558 293 q 547 175 558 229 q 510 82 536 121 q 442 22 485 43 q 333 0 399 0 l 117 0 l 117 1040 l 256 1040 l 256 1039 l 333 1039 q 427 1022 389 1039 q 491 974 465 1006 q 531 898 517 943 q 554 797 546 853 q 560 729 558 771 q 562 638 561 688 q 562 536 563 589 q 560 436 561 483 q 559 351 560 389 q 558 293 558 313 m 418 772 q 401 840 413 814 q 369 879 389 865 q 322 898 350 893 q 256 903 294 903 l 256 138 q 265 136 260 136 q 274 136 269 136 q 332 141 306 136 q 378 162 358 146 q 408 209 397 178 q 419 293 419 240 q 420 326 419 296 q 422 404 421 357 q 422 508 422 451 q 422 617 422 565 q 422 712 422 669 q 418 772 421 754 m 47 619 l 519 619 l 519 481 l 47 481 l 47 619 z "},"Đ":{"ha":610,"x_min":47,"x_max":563,"o":"m 558 293 q 547 175 558 229 q 510 82 536 121 q 442 22 485 43 q 333 0 399 0 l 117 0 l 117 1040 l 256 1040 l 256 1039 l 333 1039 q 427 1022 389 1039 q 491 974 465 1006 q 531 898 517 943 q 554 797 546 853 q 560 729 558 771 q 562 638 561 688 q 562 536 563 589 q 560 436 561 483 q 559 351 560 389 q 558 293 558 313 m 418 772 q 401 840 413 814 q 369 879 389 865 q 322 898 350 893 q 256 903 294 903 l 256 138 q 265 136 260 136 q 274 136 269 136 q 332 141 306 136 q 378 162 358 146 q 408 209 397 178 q 419 293 419 240 q 420 326 419 296 q 422 404 421 357 q 422 508 422 451 q 422 617 422 565 q 422 712 422 669 q 418 772 421 754 m 47 619 l 519 619 l 519 481 l 47 481 l 47 619 z "},"È":{"ha":535,"x_min":47,"x_max":488,"o":"m 186 139 l 488 139 l 488 0 l 47 0 l 47 1042 l 488 1042 l 488 903 l 186 903 l 186 433 l 375 546 l 444 425 l 186 272 l 186 139 m 264 1081 l 164 1250 l 271 1250 l 371 1081 l 264 1081 z "},"É":{"ha":535,"x_min":47,"x_max":488,"o":"m 186 139 l 488 139 l 488 0 l 47 0 l 47 1042 l 488 1042 l 488 903 l 186 903 l 186 433 l 375 546 l 444 425 l 186 272 l 186 139 m 264 1250 l 371 1250 l 271 1081 l 164 1081 l 264 1250 z "},"Ê":{"ha":535,"x_min":47,"x_max":489,"o":"m 186 139 l 488 139 l 488 0 l 47 0 l 47 1042 l 488 1042 l 488 903 l 186 903 l 186 433 l 375 546 l 444 425 l 186 272 l 186 139 m 47 1083 l 181 1265 l 356 1265 l 489 1083 l 381 1083 l 268 1186 l 156 1083 l 47 1083 z "},"Ë":{"ha":535,"x_min":47,"x_max":488,"o":"m 186 139 l 488 139 l 488 0 l 47 0 l 47 1042 l 488 1042 l 488 903 l 186 903 l 186 433 l 375 546 l 444 425 l 186 272 l 186 139 m 94 1165 q 113 1216 94 1197 q 164 1235 132 1235 q 213 1216 194 1235 q 232 1165 232 1197 q 213 1116 232 1135 q 164 1097 194 1097 q 113 1116 132 1097 q 94 1165 94 1135 m 303 1165 q 322 1216 303 1197 q 372 1235 340 1235 q 422 1216 403 1235 q 440 1165 440 1197 q 422 1116 440 1135 q 372 1097 403 1097 q 322 1116 340 1097 q 303 1165 303 1135 z "},"Ì":{"ha":465,"x_min":47,"x_max":418,"o":"m 303 139 l 418 139 l 418 0 l 47 0 l 47 139 l 164 139 l 164 901 l 47 901 l 47 1040 l 418 1040 l 418 901 l 303 901 l 303 139 m 229 1081 l 129 1250 l 236 1250 l 336 1081 l 229 1081 z "},"Í":{"ha":465,"x_min":47,"x_max":418,"o":"m 303 139 l 418 139 l 418 0 l 47 0 l 47 139 l 164 139 l 164 901 l 47 901 l 47 1040 l 418 1040 l 418 901 l 303 901 l 303 139 m 229 1250 l 336 1250 l 236 1081 l 129 1081 l 229 1250 z "},"Î":{"ha":465,"x_min":13,"x_max":454,"o":"m 303 139 l 418 139 l 418 0 l 47 0 l 47 139 l 164 139 l 164 901 l 47 901 l 47 1040 l 418 1040 l 418 901 l 303 901 l 303 139 m 13 1083 l 146 1265 l 321 1265 l 454 1083 l 346 1083 l 233 1186 l 121 1083 l 13 1083 z "},"Ï":{"ha":465,"x_min":47,"x_max":418,"o":"m 303 139 l 418 139 l 418 0 l 47 0 l 47 139 l 164 139 l 164 901 l 47 901 l 47 1040 l 418 1040 l 418 901 l 303 901 l 303 139 m 60 1165 q 78 1216 60 1197 q 129 1235 97 1235 q 178 1216 160 1235 q 197 1165 197 1197 q 178 1116 197 1135 q 129 1097 160 1097 q 78 1116 97 1097 q 60 1165 60 1135 m 268 1165 q 287 1216 268 1197 q 338 1235 306 1235 q 387 1216 368 1235 q 406 1165 406 1197 q 387 1116 406 1135 q 338 1097 368 1097 q 287 1116 306 1097 q 268 1165 268 1135 z "},"Ł":{"ha":536,"x_min":47,"x_max":489,"o":"m 186 1042 l 186 139 l 350 139 l 350 293 l 489 382 l 489 0 l 47 0 l 47 1042 l 186 1042 m 57 413 l 479 413 l 479 349 l 57 349 l 57 413 z "},"Ñ":{"ha":535,"x_min":47,"x_max":488,"o":"m 186 0 l 47 0 l 47 1042 l 186 1042 l 349 490 l 349 1040 l 488 1042 l 488 0 l 349 0 l 186 550 l 186 0 m 458 1190 q 406 1118 433 1138 q 351 1099 379 1099 q 304 1108 328 1099 q 258 1131 281 1118 q 215 1153 236 1143 q 175 1163 194 1163 q 124 1124 143 1163 l 76 1154 q 128 1226 101 1207 q 183 1246 156 1246 q 231 1236 207 1246 q 276 1214 254 1226 q 320 1192 299 1201 q 360 1182 342 1182 q 411 1221 392 1182 l 458 1190 z "},"Ò":{"ha":604,"x_min":47,"x_max":557,"o":"m 557 1040 l 557 0 l 47 0 l 47 1040 l 557 1040 m 186 139 l 418 139 l 418 903 l 186 903 l 186 139 m 233 425 l 233 571 l 372 571 l 372 425 l 233 425 m 299 1081 l 199 1250 l 306 1250 l 406 1081 l 299 1081 z "},"Ó":{"ha":604,"x_min":47,"x_max":557,"o":"m 557 1040 l 557 0 l 47 0 l 47 1040 l 557 1040 m 186 139 l 418 139 l 418 903 l 186 903 l 186 139 m 233 425 l 233 571 l 372 571 l 372 425 l 233 425 m 299 1250 l 406 1250 l 306 1081 l 199 1081 l 299 1250 z "},"Ô":{"ha":604,"x_min":47,"x_max":557,"o":"m 557 1040 l 557 0 l 47 0 l 47 1040 l 557 1040 m 186 139 l 418 139 l 418 903 l 186 903 l 186 139 m 233 425 l 233 571 l 372 571 l 372 425 l 233 425 m 82 1083 l 215 1265 l 390 1265 l 524 1083 l 415 1083 l 303 1186 l 190 1083 l 82 1083 z "},"Õ":{"ha":604,"x_min":47,"x_max":557,"o":"m 557 1040 l 557 0 l 47 0 l 47 1040 l 557 1040 m 186 139 l 418 139 l 418 903 l 186 903 l 186 139 m 233 425 l 233 571 l 372 571 l 372 425 l 233 425 m 493 1190 q 441 1118 468 1138 q 386 1099 414 1099 q 339 1108 363 1099 q 293 1131 315 1118 q 250 1153 271 1143 q 210 1163 229 1163 q 158 1124 178 1163 l 111 1154 q 163 1226 136 1207 q 218 1246 190 1246 q 265 1236 242 1246 q 311 1214 289 1226 q 355 1192 333 1201 q 394 1182 376 1182 q 446 1221 426 1182 l 493 1190 z "},"Ö":{"ha":604,"x_min":47,"x_max":557,"o":"m 557 1040 l 557 0 l 47 0 l 47 1040 l 557 1040 m 186 139 l 418 139 l 418 903 l 186 903 l 186 139 m 233 425 l 233 571 l 372 571 l 372 425 l 233 425 m 129 1165 q 148 1216 129 1197 q 199 1235 167 1235 q 248 1216 229 1235 q 267 1165 267 1197 q 248 1116 267 1135 q 199 1097 229 1097 q 148 1116 167 1097 q 129 1165 129 1135 m 338 1165 q 356 1216 338 1197 q 407 1235 375 1235 q 456 1216 438 1235 q 475 1165 475 1197 q 456 1116 475 1135 q 407 1097 438 1097 q 356 1116 375 1097 q 338 1165 338 1135 z "},"Ø":{"ha":604,"x_min":47,"x_max":557,"o":"m 557 1040 l 557 0 l 47 0 l 47 1040 l 557 1040 m 186 139 l 418 139 l 418 903 l 186 903 l 186 139 m 233 425 l 233 571 l 372 571 l 372 425 l 233 425 m 471 972 l 218 0 l 132 0 l 385 972 l 471 972 z "},"Œ":{"ha":1167,"x_min":47,"x_max":1119,"o":"m 557 1040 l 557 0 l 47 0 l 47 1040 l 557 1040 m 186 139 l 418 139 l 418 903 l 186 903 l 186 139 m 233 425 l 233 571 l 372 571 l 372 425 l 233 425 m 818 139 l 1119 139 l 1119 0 l 679 0 l 679 1042 l 1119 1042 l 1119 903 l 818 903 l 818 433 l 1007 546 l 1076 425 l 818 272 l 818 139 z "},"Š":{"ha":535,"x_min":47,"x_max":489,"o":"m 186 679 l 486 453 l 488 453 l 488 -1 l 47 -1 l 47 222 l 186 308 l 186 139 l 349 139 l 349 371 l 47 588 l 47 1042 l 488 1042 l 488 818 l 349 732 l 349 903 l 186 903 l 186 679 m 489 1265 l 356 1083 l 181 1083 l 47 1265 l 156 1265 l 268 1163 l 381 1265 l 489 1265 z "},"Ù":{"ha":535,"x_min":47,"x_max":488,"o":"m 186 139 l 349 139 l 349 1042 l 488 1042 l 488 0 l 47 0 l 47 1042 l 186 1042 l 186 139 m 263 1081 l 163 1250 l 269 1250 l 369 1081 l 263 1081 z "},"Ú":{"ha":535,"x_min":47,"x_max":488,"o":"m 186 139 l 349 139 l 349 1042 l 488 1042 l 488 0 l 47 0 l 47 1042 l 186 1042 l 186 139 m 263 1250 l 369 1250 l 269 1081 l 163 1081 l 263 1250 z "},"Û":{"ha":535,"x_min":44,"x_max":488,"o":"m 186 139 l 349 139 l 349 1042 l 488 1042 l 488 0 l 47 0 l 47 1042 l 186 1042 l 186 139 m 44 1083 l 178 1265 l 353 1265 l 486 1083 l 378 1083 l 265 1186 l 153 1083 l 44 1083 z "},"Ü":{"ha":535,"x_min":47,"x_max":488,"o":"m 186 139 l 349 139 l 349 1042 l 488 1042 l 488 0 l 47 0 l 47 1042 l 186 1042 l 186 139 m 93 1165 q 112 1216 93 1197 q 163 1235 131 1235 q 212 1216 193 1235 q 231 1165 231 1197 q 212 1116 231 1135 q 163 1097 193 1097 q 112 1116 131 1097 q 93 1165 93 1135 m 301 1165 q 320 1216 301 1197 q 371 1235 339 1235 q 420 1216 401 1235 q 439 1165 439 1197 q 420 1116 439 1135 q 371 1097 401 1097 q 320 1116 339 1097 q 301 1165 301 1135 z "},"Ÿ":{"ha":535,"x_min":47,"x_max":488,"o":"m 201 401 l 47 497 l 47 1042 l 186 1042 l 186 574 l 271 514 l 349 572 l 349 1042 l 488 1042 l 488 497 l 340 403 l 340 0 l 201 0 l 201 401 m 93 1165 q 112 1216 93 1197 q 163 1235 131 1235 q 212 1216 193 1235 q 231 1165 231 1197 q 212 1116 231 1135 q 163 1097 193 1097 q 112 1116 131 1097 q 93 1165 93 1135 m 301 1165 q 320 1216 301 1197 q 371 1235 339 1235 q 420 1216 401 1235 q 439 1165 439 1197 q 420 1116 439 1135 q 371 1097 401 1097 q 320 1116 339 1097 q 301 1165 301 1135 z "},"Ý":{"ha":535,"x_min":47,"x_max":488,"o":"m 201 401 l 47 497 l 47 1042 l 186 1042 l 186 574 l 271 514 l 349 572 l 349 1042 l 488 1042 l 488 497 l 340 403 l 340 0 l 201 0 l 201 401 m 261 1250 l 368 1250 l 268 1081 l 161 1081 l 261 1250 z "},"Ž":{"ha":617,"x_min":47,"x_max":569,"o":"m 369 904 l 90 904 l 90 1043 l 419 1043 l 569 1044 l 246 139 l 531 139 l 531 0 l 47 0 l 369 904 m 529 1265 l 396 1083 l 221 1083 l 88 1265 l 196 1265 l 308 1163 l 421 1265 l 529 1265 z "},"à":{"ha":535,"x_min":47,"x_max":488,"o":"m 186 736 l 349 656 l 349 736 l 488 736 l 488 0 l 349 0 l 349 42 l 186 0 l 47 0 l 47 736 l 186 736 m 186 157 l 349 199 l 349 482 l 186 563 l 186 157 m 261 803 l 161 972 l 268 972 l 368 803 l 261 803 z "},"á":{"ha":535,"x_min":47,"x_max":488,"o":"m 186 736 l 349 656 l 349 736 l 488 736 l 488 0 l 349 0 l 349 42 l 186 0 l 47 0 l 47 736 l 186 736 m 186 157 l 349 199 l 349 482 l 186 563 l 186 157 m 261 972 l 368 972 l 268 803 l 161 803 l 261 972 z "},"â":{"ha":535,"x_min":44,"x_max":488,"o":"m 186 736 l 349 656 l 349 736 l 488 736 l 488 0 l 349 0 l 349 42 l 186 0 l 47 0 l 47 736 l 186 736 m 186 157 l 349 199 l 349 482 l 186 563 l 186 157 m 44 806 l 178 988 l 353 988 l 486 806 l 378 806 l 265 908 l 153 806 l 44 806 z "},"ã":{"ha":535,"x_min":47,"x_max":488,"o":"m 186 736 l 349 656 l 349 736 l 488 736 l 488 0 l 349 0 l 349 42 l 186 0 l 47 0 l 47 736 l 186 736 m 186 157 l 349 199 l 349 482 l 186 563 l 186 157 m 456 913 q 403 840 431 860 q 349 821 376 821 q 301 831 325 821 q 256 853 278 840 q 213 875 233 865 q 172 885 192 885 q 121 846 140 885 l 74 876 q 126 949 99 929 q 181 968 153 968 q 228 958 204 968 q 274 936 251 949 q 317 914 296 924 q 357 904 339 904 q 408 943 389 904 l 456 913 z "},"ä":{"ha":535,"x_min":47,"x_max":488,"o":"m 186 736 l 349 656 l 349 736 l 488 736 l 488 0 l 349 0 l 349 42 l 186 0 l 47 0 l 47 736 l 186 736 m 186 157 l 349 199 l 349 482 l 186 563 l 186 157 m 92 888 q 110 938 92 919 q 161 957 129 957 q 210 938 192 957 q 229 888 229 919 q 210 838 229 857 q 161 819 192 819 q 110 838 129 819 q 92 888 92 857 m 300 888 q 319 938 300 919 q 369 957 338 957 q 419 938 400 957 q 438 888 438 919 q 419 838 438 857 q 369 819 400 819 q 319 838 338 819 q 300 888 300 857 z "},"å":{"ha":535,"x_min":47,"x_max":563,"o":"m 186 736 l 349 656 l 349 736 l 488 736 l 488 0 l 349 0 l 349 42 l 186 0 l 47 0 l 47 736 l 186 736 m 186 157 l 349 199 l 349 482 l 186 563 l 186 157 m 356 982 q 505 925 450 982 q 563 776 560 868 q 505 627 560 685 q 356 569 450 569 q 206 627 261 569 q 149 776 151 685 q 207 925 151 868 q 356 982 263 982 m 356 871 q 288 849 317 871 q 260 785 260 826 l 260 769 q 288 704 260 728 q 356 681 315 681 q 423 703 394 681 q 451 768 451 726 l 451 783 q 424 848 451 825 q 356 871 396 871 z "},"æ":{"ha":1163,"x_min":47,"x_max":1115,"o":"m 186 736 l 349 656 l 349 736 l 488 736 l 488 0 l 349 0 l 349 42 l 186 0 l 47 0 l 47 736 l 186 736 m 186 157 l 349 199 l 349 482 l 186 563 l 186 157 m 1115 289 l 744 289 l 744 139 l 976 139 l 976 175 l 1115 231 l 1115 0 l 606 0 l 606 738 l 1115 738 l 1115 289 m 744 435 l 976 435 l 976 599 l 744 599 l 744 435 z "},"ç":{"ha":535,"x_min":47,"x_max":488,"o":"m 186 138 l 349 139 l 349 204 l 488 293 l 488 -1 l 117 -1 l 117 0 l 47 0 l 47 738 l 186 738 l 186 736 l 488 736 l 488 494 l 349 494 l 349 597 l 186 597 l 186 138 m 386 51 q 365 -36 386 0 q 320 -97 344 -72 q 276 -139 296 -122 q 256 -169 256 -156 q 267 -190 256 -185 q 289 -194 278 -194 q 372 -176 329 -194 l 408 -282 q 350 -299 381 -293 q 289 -306 319 -306 q 236 -296 263 -306 q 190 -269 210 -286 q 157 -228 169 -253 q 144 -175 144 -204 q 165 -102 144 -131 q 210 -51 185 -74 q 255 -5 235 -28 q 275 51 275 18 l 386 51 z "},"đ":{"ha":604,"x_min":47,"x_max":628,"o":"m 186 736 l 418 642 l 418 1042 l 557 1042 l 557 0 l 418 0 l 418 49 l 186 0 l 47 0 l 47 736 l 186 736 m 186 153 l 418 203 l 418 475 l 186 569 l 186 153 m 49 894 l 628 894 l 628 831 l 49 831 l 49 894 z "},"è":{"ha":604,"x_min":47,"x_max":557,"o":"m 557 289 l 186 289 l 186 139 l 418 139 l 418 175 l 557 231 l 557 0 l 47 0 l 47 738 l 557 738 l 557 289 m 186 435 l 418 435 l 418 599 l 186 599 l 186 435 m 290 803 l 190 972 l 297 972 l 397 803 l 290 803 z "},"é":{"ha":604,"x_min":47,"x_max":557,"o":"m 557 289 l 186 289 l 186 139 l 418 139 l 418 175 l 557 231 l 557 0 l 47 0 l 47 738 l 557 738 l 557 289 m 186 435 l 418 435 l 418 599 l 186 599 l 186 435 m 290 972 l 397 972 l 297 803 l 190 803 l 290 972 z "},"ê":{"ha":604,"x_min":47,"x_max":557,"o":"m 557 289 l 186 289 l 186 139 l 418 139 l 418 175 l 557 231 l 557 0 l 47 0 l 47 738 l 557 738 l 557 289 m 186 435 l 418 435 l 418 599 l 186 599 l 186 435 m 74 806 l 207 988 l 382 988 l 515 806 l 407 806 l 294 908 l 182 806 l 74 806 z "},"ë":{"ha":604,"x_min":47,"x_max":557,"o":"m 557 289 l 186 289 l 186 139 l 418 139 l 418 175 l 557 231 l 557 0 l 47 0 l 47 738 l 557 738 l 557 289 m 186 435 l 418 435 l 418 599 l 186 599 l 186 435 m 122 888 q 141 938 122 919 q 192 957 160 957 q 241 938 222 957 q 260 888 260 919 q 241 838 260 857 q 192 819 222 819 q 141 838 160 819 q 122 888 122 857 m 331 888 q 349 938 331 919 q 400 957 368 957 q 449 938 431 957 q 468 888 468 919 q 449 838 468 857 q 400 819 431 819 q 349 838 368 819 q 331 888 331 857 z "},"ì":{"ha":233,"x_min":22,"x_max":229,"o":"m 186 0 l 47 0 l 47 738 l 186 738 l 186 0 m 122 803 l 22 972 l 129 972 l 229 803 l 122 803 z "},"í":{"ha":233,"x_min":22,"x_max":229,"o":"m 186 0 l 47 0 l 47 738 l 186 738 l 186 0 m 122 972 l 229 972 l 129 803 l 22 803 l 122 972 z "},"î":{"ha":233,"x_min":-94,"x_max":347,"o":"m 186 0 l 47 0 l 47 738 l 186 738 l 186 0 m -94 806 l 39 988 l 214 988 l 347 806 l 239 806 l 126 908 l 14 806 l -94 806 z "},"ï":{"ha":233,"x_min":-47,"x_max":300,"o":"m 186 0 l 47 0 l 47 738 l 186 738 l 186 0 m -46 888 q -27 938 -46 919 q 24 957 -8 957 q 73 938 54 957 q 92 888 92 919 q 73 838 92 857 q 24 819 54 819 q -27 838 -8 819 q -46 888 -46 857 m 163 888 q 181 938 163 919 q 232 957 200 957 q 281 938 263 957 q 300 888 300 919 q 281 838 300 857 q 232 819 263 819 q 181 838 200 819 q 163 888 163 857 z "},"ł":{"ha":535,"x_min":35,"x_max":488,"o":"m 186 1042 l 186 139 l 349 139 l 349 199 l 488 286 l 488 0 l 47 0 l 47 942 l 186 1042 m 35 413 l 457 413 l 457 349 l 35 349 l 35 413 z "},"ñ":{"ha":535,"x_min":47,"x_max":488,"o":"m 186 736 l 488 582 l 488 0 l 349 0 l 349 478 l 186 563 l 186 0 l 47 0 l 47 736 l 186 736 m 456 913 q 403 840 431 860 q 349 821 376 821 q 301 831 325 821 q 256 853 278 840 q 213 875 233 865 q 172 885 192 885 q 121 846 140 885 l 74 876 q 126 949 99 929 q 181 968 153 968 q 228 958 204 968 q 274 936 251 949 q 317 914 296 924 q 357 904 339 904 q 408 943 389 904 l 456 913 z "},"ò":{"ha":604,"x_min":47,"x_max":557,"o":"m 557 0 l 47 0 l 47 736 l 557 736 l 557 0 m 186 139 l 418 139 l 418 597 l 186 597 l 186 139 m 233 292 l 233 438 l 372 438 l 372 292 l 233 292 m 307 803 l 207 972 l 314 972 l 414 803 l 307 803 z "},"ó":{"ha":604,"x_min":47,"x_max":557,"o":"m 557 0 l 47 0 l 47 736 l 557 736 l 557 0 m 186 139 l 418 139 l 418 597 l 186 597 l 186 139 m 233 292 l 233 438 l 372 438 l 372 292 l 233 292 m 307 972 l 414 972 l 314 803 l 207 803 l 307 972 z "},"ô":{"ha":604,"x_min":47,"x_max":557,"o":"m 557 0 l 47 0 l 47 736 l 557 736 l 557 0 m 186 139 l 418 139 l 418 597 l 186 597 l 186 139 m 233 292 l 233 438 l 372 438 l 372 292 l 233 292 m 89 806 l 222 988 l 397 988 l 531 806 l 422 806 l 310 908 l 197 806 l 89 806 z "},"õ":{"ha":604,"x_min":47,"x_max":557,"o":"m 557 0 l 47 0 l 47 736 l 557 736 l 557 0 m 186 139 l 418 139 l 418 597 l 186 597 l 186 139 m 233 292 l 233 438 l 372 438 l 372 292 l 233 292 m 501 913 q 449 840 476 860 q 394 821 422 821 q 347 831 371 821 q 301 853 324 840 q 258 875 279 865 q 218 885 238 885 q 167 846 186 885 l 119 876 q 172 949 144 929 q 226 968 199 968 q 274 958 250 968 q 319 936 297 949 q 363 914 342 924 q 403 904 385 904 q 454 943 435 904 l 501 913 z "},"ö":{"ha":604,"x_min":47,"x_max":557,"o":"m 557 0 l 47 0 l 47 736 l 557 736 l 557 0 m 186 139 l 418 139 l 418 597 l 186 597 l 186 139 m 233 292 l 233 438 l 372 438 l 372 292 l 233 292 m 138 888 q 156 938 138 919 q 207 957 175 957 q 256 938 238 957 q 275 888 275 919 q 256 838 275 857 q 207 819 238 819 q 156 838 175 819 q 138 888 138 857 m 346 888 q 365 938 346 919 q 415 957 383 957 q 465 938 446 957 q 483 888 483 919 q 465 838 483 857 q 415 819 446 819 q 365 838 383 819 q 346 888 346 857 z "},"ø":{"ha":604,"x_min":47,"x_max":557,"o":"m 557 0 l 47 0 l 47 736 l 557 736 l 557 0 m 186 139 l 418 139 l 418 597 l 186 597 l 186 139 m 233 292 l 233 438 l 372 438 l 372 292 l 233 292 m 479 972 l 226 0 l 140 0 l 393 972 l 479 972 z "},"œ":{"ha":1253,"x_min":47,"x_max":1206,"o":"m 557 0 l 47 0 l 47 736 l 557 736 l 557 0 m 186 139 l 418 139 l 418 597 l 186 597 l 186 139 m 233 292 l 233 438 l 372 438 l 372 292 l 233 292 m 1206 289 l 835 289 l 835 139 l 1067 139 l 1067 175 l 1206 231 l 1206 0 l 696 0 l 696 738 l 1206 738 l 1206 289 m 835 435 l 1067 435 l 1067 599 l 835 599 l 835 435 z "},"š":{"ha":535,"x_min":47,"x_max":539,"o":"m 186 518 l 481 369 l 488 369 l 488 0 l 47 0 l 47 239 l 186 190 l 186 139 l 349 139 l 349 282 l 49 433 l 47 433 l 47 736 l 488 736 l 488 497 l 349 536 l 349 597 l 186 597 l 186 518 m 539 988 l 406 806 l 231 806 l 97 988 l 206 988 l 318 885 l 431 988 l 539 988 z "},"ù":{"ha":604,"x_min":47,"x_max":557,"o":"m 47 154 l 47 736 l 186 736 l 186 264 l 418 167 l 418 736 l 557 736 l 557 0 l 418 0 l 47 154 m 317 803 l 217 972 l 324 972 l 424 803 l 317 803 z "},"ú":{"ha":604,"x_min":47,"x_max":557,"o":"m 47 154 l 47 736 l 186 736 l 186 264 l 418 167 l 418 736 l 557 736 l 557 0 l 418 0 l 47 154 m 317 972 l 424 972 l 324 803 l 217 803 l 317 972 z "},"û":{"ha":604,"x_min":47,"x_max":557,"o":"m 47 154 l 47 736 l 186 736 l 186 264 l 418 167 l 418 736 l 557 736 l 557 0 l 418 0 l 47 154 m 99 806 l 232 988 l 407 988 l 540 806 l 432 806 l 319 908 l 207 806 l 99 806 z "},"ü":{"ha":604,"x_min":47,"x_max":557,"o":"m 47 154 l 47 736 l 186 736 l 186 264 l 418 167 l 418 736 l 557 736 l 557 0 l 418 0 l 47 154 m 147 888 q 166 938 147 919 q 217 957 185 957 q 266 938 247 957 q 285 888 285 919 q 266 838 285 857 q 217 819 247 819 q 166 838 185 819 q 147 888 147 857 m 356 888 q 374 938 356 919 q 425 957 393 957 q 474 938 456 957 q 493 888 493 919 q 474 838 493 857 q 425 819 456 819 q 374 838 393 819 q 356 888 356 857 z "},"ý":{"ha":604,"x_min":47,"x_max":557,"o":"m 47 -299 l 47 -160 l 418 -160 l 418 63 l 303 0 l 47 139 l 47 736 l 186 736 l 186 218 l 303 156 l 418 218 l 418 736 l 557 736 l 557 -299 l 47 -299 m 336 972 l 443 972 l 343 803 l 236 803 l 336 972 z "},"ÿ":{"ha":604,"x_min":47,"x_max":557,"o":"m 47 -299 l 47 -160 l 418 -160 l 418 63 l 303 0 l 47 139 l 47 736 l 186 736 l 186 218 l 303 156 l 418 218 l 418 736 l 557 736 l 557 -299 l 47 -299 m 168 888 q 187 938 168 919 q 238 957 206 957 q 287 938 268 957 q 306 888 306 919 q 287 838 306 857 q 238 819 268 819 q 187 838 206 819 q 168 888 168 857 m 376 888 q 395 938 376 919 q 446 957 414 957 q 495 938 476 957 q 514 888 514 919 q 495 838 514 857 q 446 819 476 819 q 395 838 414 819 q 376 888 376 857 z "},"ž":{"ha":594,"x_min":42,"x_max":547,"o":"m 331 597 l 69 597 l 69 736 l 547 736 l 258 139 l 525 139 l 525 0 l 42 0 l 331 597 m 533 988 l 400 806 l 225 806 l 92 988 l 200 988 l 313 885 l 425 988 l 533 988 z "}}}
